# xmcd CD database file
#
# Track frame offsets:
#	150
#	21238
#	47612
#	70820
#	91590
#	122610
#	142103
#	155795
#	170739
#	198121
#	217032
#	239163
#
# Disc length: 3445 seconds
#
# Revision: 0
# Processed by: cddbd v1.5.2PL0 Copyright (c) Steve Scherf et al.
# Submitted via: jetAudio 7
#
DISCID=af0d730c
DTITLE=張杏月  - 夢中人
DYEAR=1900
DGENRE=Female Vocal
TTITLE0=摇嬰仔歌
TTITLE1=月琴
TTITLE2=玫瑰三願
TTITLE3=白牡丹
TTITLE4=夢中人
TTITLE5=樵歌
TTITLE6=月夜愁
TTITLE7=杜鵑花
TTITLE8=懷念曲
TTITLE9=祈禱
TTITLE10=飄零的落花
TTITLE11=秋蟬
EXTD=
EXTT0=
EXTT1=
EXTT2=
EXTT3=
EXTT4=
EXTT5=
EXTT6=
EXTT7=
EXTT8=
EXTT9=
EXTT10=
EXTT11=
PLAYORDER=
